mtllib ./rock03_0_0.mtl
g rock03
v -483.8 -0.5450252 97.3
v -483.9624 -0.5098681 97.8
v -483.3747 -0.5098678 97.60902
v -483.0287 -0.3306506 97.86034
v -482.8933 -0.414337 97.3
v -483.3747 -0.5098678 97.60902
v -483.8 -0.5450252 97.3
v -484.3257 -0.5098653 97.3
v -483.9624 -0.5098681 97.8
v -483.8 -0.5450252 97.3
v -483.9624 -0.5098681 96.80001
v -484.3257 -0.5098653 97.3
v -483.8 -0.5450252 97.3
v -483.3747 -0.5098678 96.99099
v -483.9624 -0.5098681 96.80001
v -483.0287 -0.3306506 97.86034
v -482.8489 -0.02 97.60902
v -482.8933 -0.414337 97.3
v -484.0946 -0.330651 98.20667
v -483.8 -0.02 98.3
v -483.5198 -0.4143388 98.16228
v -484.7533 -0.3306464 97.3
v -484.751 -0.02 97.60902
v -484.5335 -0.4143373 97.83292
v -484.0946 -0.330651 96.39334
v -484.3878 -0.02 96.49099
v -484.5335 -0.4143373 96.76708
v -483.0287 -0.3306506 96.73966
v -483.2122 -0.02 96.49099
v -483.5198 -0.4143388 96.43772
v -483.0287 -0.3306506 97.86034
v -483.2122 -0.02 98.10902
v -482.8489 -0.02 97.60902
v -484.0946 -0.330651 98.20667
v -484.3878 -0.02 98.10902
v -483.8 -0.02 98.3
v -484.7533 -0.3306464 97.3
v -484.751 -0.02 96.99099
v -484.751 -0.02 97.60902
v -484.0946 -0.330651 96.39334
v -483.8 -0.02 96.3
v -484.3878 -0.02 96.49099
v -483.0287 -0.3306506 96.73966
v -482.8489 -0.02 96.99099
v -483.2122 -0.02 96.49099
v -483.5236 0.4272198 98.15065
v -483.6375 0.8306544 97.8
v -483.1118 0.5057362 97.8
v -484.5236 0.4272195 97.82573
v -484.2253 0.8306542 97.60902
v -484.0629 0.5057377 98.10902
v -484.5236 0.4272195 96.77428
v -484.2253 0.8306542 96.99099
v -484.6506 0.5057359 97.3
v -483.5236 0.4272198 96.44936
v -483.6375 0.8306544 96.80001
v -484.0629 0.5057377 96.49099
v -482.9055 0.4272156 97.3
v -483.2743 0.8306517 97.3
v -483.1118 0.5057362 96.8
v -483.2743 0.8306517 97.3
v -483.8 0.98 97.3
v -483.6375 0.8306544 96.80001
v -483.2743 0.8306517 97.3
v -483.6375 0.8306544 96.80001
v -483.1118 0.5057362 96.8
v -483.1118 0.5057362 96.8
v -483.6375 0.8306544 96.80001
v -483.5236 0.4272198 96.44936
v -483.6375 0.8306544 96.80001
v -483.8 0.98 97.3
v -484.2253 0.8306542 96.99099
v -483.6375 0.8306544 96.80001
v -484.2253 0.8306542 96.99099
v -484.0629 0.5057377 96.49099
v -484.0629 0.5057377 96.49099
v -484.2253 0.8306542 96.99099
v -484.5236 0.4272195 96.77428
v -484.2253 0.8306542 96.99099
v -483.8 0.98 97.3
v -484.2253 0.8306542 97.60902
v -484.2253 0.8306542 96.99099
v -484.2253 0.8306542 97.60902
v -484.6506 0.5057359 97.3
v -484.6506 0.5057359 97.3
v -484.2253 0.8306542 97.60902
v -484.5236 0.4272195 97.82573
v -484.2253 0.8306542 97.60902
v -483.8 0.98 97.3
v -483.6375 0.8306544 97.8
v -484.2253 0.8306542 97.60902
v -483.6375 0.8306544 97.8
v -484.0629 0.5057377 98.10902
v -484.0629 0.5057377 98.10902
v -483.6375 0.8306544 97.8
v -483.5236 0.4272198 98.15065
v -483.6375 0.8306544 97.8
v -483.8 0.98 97.3
v -483.2743 0.8306517 97.3
v -483.6375 0.8306544 97.8
v -483.2743 0.8306517 97.3
v -483.1118 0.5057362 97.8
v -483.1118 0.5057362 97.8
v -483.2743 0.8306517 97.3
v -482.9055 0.4272156 97.3
v -482.8489 -0.02 96.99099
v -482.9055 0.4272156 97.3
v -483.1118 0.5057362 96.8
v -482.8489 -0.02 96.99099
v -483.1118 0.5057362 96.8
v -483.2122 -0.02 96.49099
v -483.2122 -0.02 96.49099
v -483.1118 0.5057362 96.8
v -483.5236 0.4272198 96.44936
v -483.8 -0.02 96.3
v -483.5236 0.4272198 96.44936
v -484.0629 0.5057377 96.49099
v -483.8 -0.02 96.3
v -484.0629 0.5057377 96.49099
v -484.3878 -0.02 96.49099
v -484.3878 -0.02 96.49099
v -484.0629 0.5057377 96.49099
v -484.5236 0.4272195 96.77428
v -484.751 -0.02 96.99099
v -484.5236 0.4272195 96.77428
v -484.6506 0.5057359 97.3
v -484.751 -0.02 96.99099
v -484.6506 0.5057359 97.3
v -484.751 -0.02 97.60902
v -484.751 -0.02 97.60902
v -484.6506 0.5057359 97.3
v -484.5236 0.4272195 97.82573
v -484.3878 -0.02 98.10902
v -484.5236 0.4272195 97.82573
v -484.0629 0.5057377 98.10902
v -484.3878 -0.02 98.10902
v -484.0629 0.5057377 98.10902
v -483.8 -0.02 98.3
v -483.8 -0.02 98.3
v -484.0629 0.5057377 98.10902
v -483.5236 0.4272198 98.15065
v -483.2122 -0.02 98.10902
v -483.5236 0.4272198 98.15065
v -483.1118 0.5057362 97.8
v -483.2122 -0.02 98.10902
v -483.1118 0.5057362 97.8
v -482.8489 -0.02 97.60902
v -482.8489 -0.02 97.60902
v -483.1118 0.5057362 97.8
v -482.9055 0.4272156 97.3
v -483.2122 -0.02 96.49099
v -483.5236 0.4272198 96.44936
v -483.8 -0.02 96.3
v -483.2122 -0.02 96.49099
v -483.8 -0.02 96.3
v -483.5198 -0.4143388 96.43772
v -483.5198 -0.4143388 96.43772
v -483.8 -0.02 96.3
v -484.0946 -0.330651 96.39334
v -484.3878 -0.02 96.49099
v -484.5236 0.4272195 96.77428
v -484.751 -0.02 96.99099
v -484.3878 -0.02 96.49099
v -484.751 -0.02 96.99099
v -484.5335 -0.4143373 96.76708
v -484.5335 -0.4143373 96.76708
v -484.751 -0.02 96.99099
v -484.7533 -0.3306464 97.3
v -484.751 -0.02 97.60902
v -484.5236 0.4272195 97.82573
v -484.3878 -0.02 98.10902
v -484.751 -0.02 97.60902
v -484.3878 -0.02 98.10902
v -484.5335 -0.4143373 97.83292
v -484.5335 -0.4143373 97.83292
v -484.3878 -0.02 98.10902
v -484.0946 -0.330651 98.20667
v -483.8 -0.02 98.3
v -483.5236 0.4272198 98.15065
v -483.2122 -0.02 98.10902
v -483.8 -0.02 98.3
v -483.2122 -0.02 98.10902
v -483.5198 -0.4143388 98.16228
v -483.5198 -0.4143388 98.16228
v -483.2122 -0.02 98.10902
v -483.0287 -0.3306506 97.86034
v -482.8489 -0.02 97.60902
v -482.9055 0.4272156 97.3
v -482.8489 -0.02 96.99099
v -482.8489 -0.02 97.60902
v -482.8489 -0.02 96.99099
v -482.8933 -0.414337 97.3
v -482.8933 -0.414337 97.3
v -482.8489 -0.02 96.99099
v -483.0287 -0.3306506 96.73966
v -483.3747 -0.5098678 96.99099
v -483.0287 -0.3306506 96.73966
v -483.5198 -0.4143388 96.43772
v -483.3747 -0.5098678 96.99099
v -483.5198 -0.4143388 96.43772
v -483.9624 -0.5098681 96.80001
v -483.9624 -0.5098681 96.80001
v -483.5198 -0.4143388 96.43772
v -484.0946 -0.330651 96.39334
v -483.9624 -0.5098681 96.80001
v -484.0946 -0.330651 96.39334
v -484.5335 -0.4143373 96.76708
v -483.9624 -0.5098681 96.80001
v -484.5335 -0.4143373 96.76708
v -484.3257 -0.5098653 97.3
v -484.3257 -0.5098653 97.3
v -484.5335 -0.4143373 96.76708
v -484.7533 -0.3306464 97.3
v -484.3257 -0.5098653 97.3
v -484.7533 -0.3306464 97.3
v -484.5335 -0.4143373 97.83292
v -484.3257 -0.5098653 97.3
v -484.5335 -0.4143373 97.83292
v -483.9624 -0.5098681 97.8
v -483.9624 -0.5098681 97.8
v -484.5335 -0.4143373 97.83292
v -484.0946 -0.330651 98.20667
v -482.8933 -0.414337 97.3
v -483.0287 -0.3306506 96.73966
v -483.3747 -0.5098678 96.99099
v -482.8933 -0.414337 97.3
v -483.3747 -0.5098678 96.99099
v -483.3747 -0.5098678 97.60902
v -483.3747 -0.5098678 97.60902
v -483.3747 -0.5098678 96.99099
v -483.8 -0.5450252 97.3
v -483.9624 -0.5098681 97.8
v -484.0946 -0.330651 98.20667
v -483.5198 -0.4143388 98.16228
v -483.9624 -0.5098681 97.8
v -483.5198 -0.4143388 98.16228
v -483.3747 -0.5098678 97.60902
v -483.3747 -0.5098678 97.60902
v -483.5198 -0.4143388 98.16228
v -483.0287 -0.3306506 97.86034

vn 0.02545734 -0.996601 0.0783475
vn 0.02545734 -0.996601 0.0783475
vn 0.02545734 -0.996601 0.0783475
vn 0.3212824 -0.9221696 0.2153622
vn 0.3212824 -0.9221696 0.2153622
vn 0.3212824 -0.9221696 0.2153622
vn -0.06665087 -0.9966008 0.04842016
vn -0.06665087 -0.9966008 0.04842016
vn -0.06665087 -0.9966008 0.04842016
vn -0.06665087 -0.9966008 -0.04842016
vn -0.06665087 -0.9966008 -0.04842016
vn -0.06665087 -0.9966008 -0.04842016
vn 0.02545734 -0.996601 -0.0783475
vn 0.02545734 -0.996601 -0.0783475
vn 0.02545734 -0.996601 -0.0783475
vn 0.9118714 -0.3118365 0.266924
vn 0.9118714 -0.3118365 0.266924
vn 0.9118714 -0.3118365 0.266924
vn 0.02792612 -0.311839 0.9497245
vn 0.02792612 -0.311839 0.9497245
vn 0.02792612 -0.311839 0.9497245
vn -0.8946146 -0.311836 0.3200359
vn -0.8946146 -0.311836 0.3200359
vn -0.8946146 -0.311836 0.3200359
vn -0.5808201 -0.3118405 -0.7519331
vn -0.5808201 -0.3118405 -0.7519331
vn -0.5808201 -0.3118405 -0.7519331
vn 0.5356498 -0.3118392 -0.7847519
vn 0.5356498 -0.3118392 -0.7847519
vn 0.5356498 -0.3118392 -0.7847519
vn 0.808997 0.007282984 0.5877676
vn 0.808997 0.007282984 0.5877676
vn 0.808997 0.007282984 0.5877676
vn -0.309009 0.007281153 0.9510312
vn -0.309009 0.007281153 0.9510312
vn -0.309009 0.007281153 0.9510312
vn -0.9999735 0.007284073 0
vn -0.9999735 0.007284073 0
vn -0.9999735 0.007284073 0
vn -0.309009 0.007281153 -0.9510312
vn -0.309009 0.007281153 -0.9510312
vn -0.309009 0.007281153 -0.9510312
vn 0.808997 0.007282984 -0.5877676
vn 0.808997 0.007282984 -0.5877676
vn 0.808997 0.007282984 -0.5877676
vn 0.408946 0.6616986 0.6284251
vn 0.408946 0.6616986 0.6284251
vn 0.408946 0.6616986 0.6284251
vn -0.4712998 0.6616986 0.5831221
vn -0.4712998 0.6616986 0.5831221
vn -0.4712998 0.6616986 0.5831221
vn -0.7002239 0.6616989 -0.2680318
vn -0.7002239 0.6616989 -0.2680318
vn -0.7002239 0.6616989 -0.2680318
vn 0.0385304 0.6616988 -0.7487792
vn 0.0385304 0.6616988 -0.7487792
vn 0.0385304 0.6616988 -0.7487792
vn 0.7240421 0.6616955 -0.1947361
vn 0.7240421 0.6616955 -0.1947361
vn 0.7240421 0.6616955 -0.1947361
vn 0.2680341 0.9435229 -0.1947366
vn 0.2680341 0.9435229 -0.1947366
vn 0.2680341 0.9435229 -0.1947366
vn 0.4911195 0.7946574 -0.356821
vn 0.4911195 0.7946574 -0.356821
vn 0.4911195 0.7946574 -0.356821
vn 0.408946 0.6616985 -0.6284252
vn 0.408946 0.6616985 -0.6284252
vn 0.408946 0.6616985 -0.6284252
vn -0.1023808 0.9435235 -0.3150899
vn -0.1023808 0.9435235 -0.3150899
vn -0.1023808 0.9435235 -0.3150899
vn -0.1875939 0.7946577 -0.5773453
vn -0.1875939 0.7946577 -0.5773453
vn -0.1875939 0.7946577 -0.5773453
vn -0.4712998 0.6616985 -0.5831222
vn -0.4712998 0.6616985 -0.5831222
vn -0.4712998 0.6616985 -0.5831222
vn -0.3313045 0.9435238 0
vn -0.3313045 0.9435238 0
vn -0.3313045 0.9435238 0
vn -0.6070606 0.7946556 0
vn -0.6070606 0.7946556 0
vn -0.6070606 0.7946556 0
vn -0.7002239 0.6616989 0.2680319
vn -0.7002239 0.6616989 0.2680319
vn -0.7002239 0.6616989 0.2680319
vn -0.1023808 0.9435235 0.3150899
vn -0.1023808 0.9435235 0.3150899
vn -0.1023808 0.9435235 0.3150899
vn -0.187594 0.7946577 0.5773453
vn -0.187594 0.7946577 0.5773453
vn -0.187594 0.7946577 0.5773453
vn 0.03853039 0.6616988 0.7487792
vn 0.03853039 0.6616988 0.7487792
vn 0.03853039 0.6616988 0.7487792
vn 0.2680341 0.9435229 0.1947366
vn 0.2680341 0.9435229 0.1947366
vn 0.2680341 0.9435229 0.1947366
vn 0.4911196 0.7946573 0.356821
vn 0.4911196 0.7946573 0.356821
vn 0.4911196 0.7946573 0.356821
vn 0.7240421 0.6616955 0.1947361
vn 0.7240421 0.6616955 0.1947361
vn 0.7240421 0.6616955 0.1947361
vn 0.8896973 0.3303848 -0.3150946
vn 0.8896973 0.3303848 -0.3150946
vn 0.8896973 0.3303848 -0.3150946
vn 0.7946556 0.187595 -0.5773478
vn 0.7946556 0.187595 -0.5773478
vn 0.7946556 0.187595 -0.5773478
vn 0.5746019 0.3303875 -0.7487835
vn 0.5746019 0.3303875 -0.7487835
vn 0.5746019 0.3303875 -0.7487835
vn -0.02474661 0.3303864 -0.9435213
vn -0.02474661 0.3303864 -0.9435213
vn -0.02474661 0.3303864 -0.9435213
vn -0.3035309 0.1875973 -0.9341714
vn -0.3035309 0.1875973 -0.9341714
vn -0.3035309 0.1875973 -0.9341714
vn -0.5345759 0.3303867 -0.7778645
vn -0.5345759 0.3303867 -0.7778645
vn -0.5345759 0.3303867 -0.7778645
vn -0.9049891 0.3303845 -0.2680313
vn -0.9049891 0.3303845 -0.2680313
vn -0.9049891 0.3303845 -0.2680313
vn -0.9822458 0.1875985 0
vn -0.9822458 0.1875985 0
vn -0.9822458 0.1875985 0
vn -0.9049891 0.3303845 0.2680313
vn -0.9049891 0.3303845 0.2680313
vn -0.9049891 0.3303845 0.2680313
vn -0.5345759 0.3303867 0.7778645
vn -0.5345759 0.3303867 0.7778645
vn -0.5345759 0.3303867 0.7778645
vn -0.3035309 0.1875974 0.9341714
vn -0.3035309 0.1875974 0.9341714
vn -0.3035309 0.1875974 0.9341714
vn -0.02474661 0.3303864 0.9435213
vn -0.02474661 0.3303864 0.9435213
vn -0.02474661 0.3303864 0.9435213
vn 0.5746019 0.3303875 0.7487835
vn 0.5746019 0.3303875 0.7487835
vn 0.5746019 0.3303875 0.7487835
vn 0.7946556 0.1875951 0.5773478
vn 0.7946556 0.1875951 0.5773478
vn 0.7946556 0.1875951 0.5773478
vn 0.8896973 0.3303848 0.3150946
vn 0.8896973 0.3303848 0.3150946
vn 0.8896973 0.3303848 0.3150946
vn 0.3065689 0.1256288 -0.9435216
vn 0.3065689 0.1256288 -0.9435216
vn 0.3065689 0.1256288 -0.9435216
vn 0.307077 -0.1118817 -0.9450853
vn 0.307077 -0.1118817 -0.9450853
vn 0.307077 -0.1118817 -0.9450853
vn 0.02792612 -0.311839 -0.9497245
vn 0.02792612 -0.311839 -0.9497245
vn 0.02792612 -0.311839 -0.9497245
vn -0.802609 0.1256273 -0.5831265
vn -0.802609 0.1256273 -0.5831265
vn -0.802609 0.1256273 -0.5831265
vn -0.8039395 -0.1118778 -0.584093
vn -0.8039395 -0.1118778 -0.584093
vn -0.8039395 -0.1118778 -0.584093
vn -0.8946146 -0.311836 -0.3200359
vn -0.8946146 -0.311836 -0.3200359
vn -0.8946146 -0.311836 -0.3200359
vn -0.802609 0.1256273 0.5831265
vn -0.802609 0.1256273 0.5831265
vn -0.802609 0.1256273 0.5831265
vn -0.8039395 -0.1118778 0.584093
vn -0.8039395 -0.1118778 0.584093
vn -0.8039395 -0.1118778 0.584093
vn -0.5808202 -0.3118406 0.751933
vn -0.5808202 -0.3118406 0.751933
vn -0.5808202 -0.3118406 0.751933
vn 0.3065689 0.1256288 0.9435216
vn 0.3065689 0.1256288 0.9435216
vn 0.3065689 0.1256288 0.9435216
vn 0.307077 -0.1118817 0.9450853
vn 0.307077 -0.1118817 0.9450853
vn 0.307077 -0.1118817 0.9450853
vn 0.5356499 -0.3118393 0.7847518
vn 0.5356499 -0.3118393 0.7847518
vn 0.5356499 -0.3118393 0.7847518
vn 0.9920773 0.1256283 0
vn 0.9920773 0.1256283 0
vn 0.9920773 0.1256283 0
vn 0.9937214 -0.111883 0
vn 0.9937214 -0.111883 0
vn 0.9937214 -0.111883 0
vn 0.9118714 -0.3118365 -0.266924
vn 0.9118714 -0.3118365 -0.266924
vn 0.9118714 -0.3118365 -0.266924
vn 0.3041061 -0.9221697 -0.2390033
vn 0.3041061 -0.9221697 -0.2390033
vn 0.3041061 -0.9221697 -0.2390033
vn 0.06015739 -0.9808689 -0.1851409
vn 0.06015739 -0.9808689 -0.1851409
vn 0.06015739 -0.9808689 -0.1851409
vn -0.1055399 -0.9221698 -0.3721078
vn -0.1055399 -0.9221698 -0.3721078
vn -0.1055399 -0.9221698 -0.3721078
vn -0.1333362 -0.9221697 -0.3630763
vn -0.1333362 -0.9221697 -0.3630763
vn -0.1333362 -0.9221697 -0.3630763
vn -0.1574925 -0.9808689 -0.1144217
vn -0.1574925 -0.9808689 -0.1144217
vn -0.1574925 -0.9808689 -0.1144217
vn -0.386514 -0.9221678 -0.01460855
vn -0.386514 -0.9221678 -0.01460855
vn -0.386514 -0.9221678 -0.01460855
vn -0.386514 -0.9221678 0.01460855
vn -0.386514 -0.9221678 0.01460855
vn -0.386514 -0.9221678 0.01460855
vn -0.1574926 -0.9808689 0.1144217
vn -0.1574926 -0.9808689 0.1144217
vn -0.1574926 -0.9808689 0.1144217
vn -0.1333362 -0.9221697 0.3630763
vn -0.1333362 -0.9221697 0.3630763
vn -0.1333362 -0.9221697 0.3630763
vn 0.3212824 -0.9221696 -0.2153621
vn 0.3212824 -0.9221696 -0.2153621
vn 0.3212824 -0.9221696 -0.2153621
vn 0.1946728 -0.9808683 0
vn 0.1946728 -0.9808683 0
vn 0.1946728 -0.9808683 0
vn 0.08237967 -0.996601 0
vn 0.08237967 -0.996601 0
vn 0.08237967 -0.996601 0
vn -0.1055399 -0.9221698 0.3721078
vn -0.1055399 -0.9221698 0.3721078
vn -0.1055399 -0.9221698 0.3721078
vn 0.06015729 -0.9808689 0.1851409
vn 0.06015729 -0.9808689 0.1851409
vn 0.06015729 -0.9808689 0.1851409
vn 0.3041061 -0.9221697 0.2390033
vn 0.3041061 -0.9221697 0.2390033
vn 0.3041061 -0.9221697 0.2390033

vt 0 0
vt 1 1
vt 1 0
vt 0 0
vt 1 1
vt 1 0
vt 0 0
vt 1 1
vt 1 0
vt 0 0
vt 1 1
vt 1 0
vt 0 0
vt 1 1
vt 1 0
vt 0 0
vt 1 1
vt 1 0
vt 0 0
vt 1 1
vt 1 0
vt 0 0
vt 1 1
vt 1 0
vt 0 0
vt 1 1
vt 1 0
vt 0 0
vt 1 1
vt 1 0
vt 0 0
vt 1 1
vt 1 0
vt 0 0
vt 1 1
vt 1 0
vt 0 0
vt 1 1
vt 1 0
vt 0 0
vt 1 1
vt 1 0
vt 0 0
vt 1 1
vt 1 0
vt 0 0
vt 1 1
vt 1 0
vt 0 0
vt 1 1
vt 1 0
vt 0 0
vt 1 1
vt 1 0
vt 0 0
vt 1 1
vt 1 0
vt 0 0
vt 1 1
vt 1 0
vt 0 0
vt 1 1
vt 1 0
vt 0 0
vt 1 1
vt 1 0
vt 0 0
vt 1 1
vt 1 0
vt 0 0
vt 1 1
vt 1 0
vt 0 0
vt 1 1
vt 1 0
vt 0 0
vt 1 1
vt 1 0
vt 0 0
vt 1 1
vt 1 0
vt 0 0
vt 1 1
vt 1 0
vt 0 0
vt 1 1
vt 1 0
vt 0 0
vt 1 1
vt 1 0
vt 0 0
vt 1 1
vt 1 0
vt 0 0
vt 1 1
vt 1 0
vt 0 0
vt 1 1
vt 1 0
vt 0 0
vt 1 1
vt 1 0
vt 0 0
vt 1 1
vt 1 0
vt 0 0
vt 1 1
vt 1 0
vt 0 0
vt 1 1
vt 1 0
vt 0 0
vt 1 1
vt 1 0
vt 0 0
vt 1 1
vt 1 0
vt 0 0
vt 1 1
vt 1 0
vt 0 0
vt 1 1
vt 1 0
vt 0 0
vt 1 1
vt 1 0
vt 0 0
vt 1 1
vt 1 0
vt 0 0
vt 1 1
vt 1 0
vt 0 0
vt 1 1
vt 1 0
vt 0 0
vt 1 1
vt 1 0
vt 0 0
vt 1 1
vt 1 0
vt 0 0
vt 1 1
vt 1 0
vt 0 0
vt 1 1
vt 1 0
vt 0 0
vt 1 1
vt 1 0
vt 0 0
vt 1 1
vt 1 0
vt 0 0
vt 1 1
vt 1 0
vt 0 0
vt 1 1
vt 1 0
vt 0 0
vt 1 1
vt 1 0
vt 0 0
vt 1 1
vt 1 0
vt 0 0
vt 1 1
vt 1 0
vt 0 0
vt 1 1
vt 1 0
vt 0 0
vt 1 1
vt 1 0
vt 0 0
vt 1 1
vt 1 0
vt 0 0
vt 1 1
vt 1 0
vt 0 0
vt 1 1
vt 1 0
vt 0 0
vt 1 1
vt 1 0
vt 0 0
vt 1 1
vt 1 0
vt 0 0
vt 1 1
vt 1 0
vt 0 0
vt 1 1
vt 1 0
vt 0 0
vt 1 1
vt 1 0
vt 0 0
vt 1 1
vt 1 0
vt 0 0
vt 1 1
vt 1 0
vt 0 0
vt 1 1
vt 1 0
vt 0 0
vt 1 1
vt 1 0
vt 0 0
vt 1 1
vt 1 0
vt 0 0
vt 1 1
vt 1 0
vt 0 0
vt 1 1
vt 1 0
vt 0 0
vt 1 1
vt 1 0
vt 0 0
vt 1 1
vt 1 0
vt 0 0
vt 1 1
vt 1 0
vt 0 0
vt 1 1
vt 1 0
vt 0 0
vt 1 1
vt 1 0
vt 0 0
vt 1 1
vt 1 0
vt 0 0
vt 1 1
vt 1 0

usemtl Rock_03_Material
usemap Rock_03_Material
f 2/2/2 1/1/1 3/3/3
f 5/5/5 4/4/4 6/6/6
f 8/8/8 7/7/7 9/9/9
f 11/11/11 10/10/10 12/12/12
f 14/14/14 13/13/13 15/15/15
f 17/17/17 16/16/16 18/18/18
f 20/20/20 19/19/19 21/21/21
f 23/23/23 22/22/22 24/24/24
f 26/26/26 25/25/25 27/27/27
f 29/29/29 28/28/28 30/30/30
f 32/32/32 31/31/31 33/33/33
f 35/35/35 34/34/34 36/36/36
f 38/38/38 37/37/37 39/39/39
f 41/41/41 40/40/40 42/42/42
f 44/44/44 43/43/43 45/45/45
f 47/47/47 46/46/46 48/48/48
f 50/50/50 49/49/49 51/51/51
f 53/53/53 52/52/52 54/54/54
f 56/56/56 55/55/55 57/57/57
f 59/59/59 58/58/58 60/60/60
f 62/62/62 61/61/61 63/63/63
f 65/65/65 64/64/64 66/66/66
f 68/68/68 67/67/67 69/69/69
f 71/71/71 70/70/70 72/72/72
f 74/74/74 73/73/73 75/75/75
f 77/77/77 76/76/76 78/78/78
f 80/80/80 79/79/79 81/81/81
f 83/83/83 82/82/82 84/84/84
f 86/86/86 85/85/85 87/87/87
f 89/89/89 88/88/88 90/90/90
f 92/92/92 91/91/91 93/93/93
f 95/95/95 94/94/94 96/96/96
f 98/98/98 97/97/97 99/99/99
f 101/101/101 100/100/100 102/102/102
f 104/104/104 103/103/103 105/105/105
f 107/107/107 106/106/106 108/108/108
f 110/110/110 109/109/109 111/111/111
f 113/113/113 112/112/112 114/114/114
f 116/116/116 115/115/115 117/117/117
f 119/119/119 118/118/118 120/120/120
f 122/122/122 121/121/121 123/123/123
f 125/125/125 124/124/124 126/126/126
f 128/128/128 127/127/127 129/129/129
f 131/131/131 130/130/130 132/132/132
f 134/134/134 133/133/133 135/135/135
f 137/137/137 136/136/136 138/138/138
f 140/140/140 139/139/139 141/141/141
f 143/143/143 142/142/142 144/144/144
f 146/146/146 145/145/145 147/147/147
f 149/149/149 148/148/148 150/150/150
f 152/152/152 151/151/151 153/153/153
f 155/155/155 154/154/154 156/156/156
f 158/158/158 157/157/157 159/159/159
f 161/161/161 160/160/160 162/162/162
f 164/164/164 163/163/163 165/165/165
f 167/167/167 166/166/166 168/168/168
f 170/170/170 169/169/169 171/171/171
f 173/173/173 172/172/172 174/174/174
f 176/176/176 175/175/175 177/177/177
f 179/179/179 178/178/178 180/180/180
f 182/182/182 181/181/181 183/183/183
f 185/185/185 184/184/184 186/186/186
f 188/188/188 187/187/187 189/189/189
f 191/191/191 190/190/190 192/192/192
f 194/194/194 193/193/193 195/195/195
f 197/197/197 196/196/196 198/198/198
f 200/200/200 199/199/199 201/201/201
f 203/203/203 202/202/202 204/204/204
f 206/206/206 205/205/205 207/207/207
f 209/209/209 208/208/208 210/210/210
f 212/212/212 211/211/211 213/213/213
f 215/215/215 214/214/214 216/216/216
f 218/218/218 217/217/217 219/219/219
f 221/221/221 220/220/220 222/222/222
f 224/224/224 223/223/223 225/225/225
f 227/227/227 226/226/226 228/228/228
f 230/230/230 229/229/229 231/231/231
f 233/233/233 232/232/232 234/234/234
f 236/236/236 235/235/235 237/237/237
f 239/239/239 238/238/238 240/240/240
